<?xml version="1.0" encoding="utf-8"?>
<!-- Generator: Adobe Illustrator 22.1.0, SVG Export Plug-In . SVG Version: 6.00 Build 0)  -->
<svg version="1.1" id="Calque_1" xmlns="http://www.w3.org/2000/svg" xmlns:xlink="http://www.w3.org/1999/xlink" x="0px" y="0px"
	 viewBox="0 0 70 70" style="enable-background:new 0 0 70 70;" xml:space="preserve">
<style type="text/css">
	.st0{fill:none;stroke:#010202;stroke-miterlimit:10;}
</style>
<symbol  id="point" viewBox="-0.5 -5.1 1 10.1">
	<line class="st0" x1="0" y1="5.1" x2="0" y2="-5.1"/>
</symbol>
<g id="Tests">
	<g>
		<g>
			
				<use xlink:href="#point"  width="1" height="10.1" x="-0.5" y="-5.1" transform="matrix(1 0 0 -1 -6669.8286 2116.0608)" style="overflow:visible;"/>
			
				<use xlink:href="#point"  width="1" height="10.1" x="-0.5" y="-5.1" transform="matrix(1 0 0 -1 -6669.8286 2176.9282)" style="overflow:visible;"/>
			
				<use xlink:href="#point"  width="1" height="10.1" x="-0.5" y="-5.1" transform="matrix(1 0 0 -1 -6669.8286 2287.2507)" style="overflow:visible;"/>
			
				<use xlink:href="#point"  width="1" height="10.1" x="-0.5" y="-5.1" transform="matrix(1 0 0 -1 -6669.8286 2652.4563)" style="overflow:visible;"/>
			
				<use xlink:href="#point"  width="1" height="10.1" x="-0.5" y="-5.1" transform="matrix(1 0 0 -1 -6669.8286 2739.9534)" style="overflow:visible;"/>
			
				<use xlink:href="#point"  width="1" height="10.1" x="-0.5" y="-5.1" transform="matrix(1 0 0 -1 -6669.8286 2903.5349)" style="overflow:visible;"/>
			
				<use xlink:href="#point"  width="1" height="10.1" x="-0.5" y="-5.1" transform="matrix(1 0 0 -1 -6669.8286 3097.5505)" style="overflow:visible;"/>
			
				<use xlink:href="#point"  width="1" height="10.1" x="-0.5" y="-5.1" transform="matrix(1 0 0 -1 -6669.8286 3599.708)" style="overflow:visible;"/>
			
				<use xlink:href="#point"  width="1" height="10.1" x="-0.5" y="-5.1" transform="matrix(1 0 0 -1 -6669.8286 3873.6121)" style="overflow:visible;"/>
			
				<use xlink:href="#point"  width="1" height="10.1" x="-0.5" y="-5.1" transform="matrix(1 0 0 -1 -6669.8286 4128.4951)" style="overflow:visible;"/>
			
				<use xlink:href="#point"  width="1" height="10.1" x="-0.5" y="-5.1" transform="matrix(1 0 0 -1 -6669.8286 4801.8428)" style="overflow:visible;"/>
			
				<use xlink:href="#point"  width="1" height="10.1" x="-0.5" y="-5.1" transform="matrix(1 0 0 -1 -6669.8286 5216.5034)" style="overflow:visible;"/>
			
				<use xlink:href="#point"  width="1" height="10.1" x="-0.5" y="-5.1" transform="matrix(1 0 0 -1 -6669.8286 5265.958)" style="overflow:visible;"/>
			
				<use xlink:href="#point"  width="1" height="10.1" x="-0.5" y="-5.1" transform="matrix(1 0 0 -1 -6669.8286 5608.3384)" style="overflow:visible;"/>
		</g>
	</g>
</g>
<g id="_x2D_-------">
</g>
<g id="_x2D_-------_2_">
</g>
<g id="COMPARATEUR">
	<path d="M59.6,57.6"/>
	<path d="M32.9-6.1"/>
	<path d="M63.6,67.8c-0.8-1.9-1.1-4.2-1.5-6.1c-0.4-2.1-0.7-4.2-1.2-6.3c-0.3-1.2-0.7-2.3-1.1-3.4c-0.3-0.7-0.5-1.6-1-2.1
		c-0.7-0.7-1.8-0.8-2.7-1.1c-1-0.3-2.1-0.6-3.1-0.9c-2.2-0.6-4.4-1-6.4-1.9c-1.4-0.7-3.4-1.4-4.2-2.9c-1.6-2.8,0.3-6.6,1.9-9
		c0.5-0.7,0.4-1.5,0.9-2.2c0.4-0.6,0.8-0.8,1.1-1.5c0.6-1.9,1.4-4.1,1.4-6.1c0-1.1-0.2-2.1-0.1-3.1c0.1-1,0-1.7-0.2-2.7
		c-0.5-2-0.6-4.1-1.5-6.1c-0.3-0.8-0.3-1.4-1.1-1.8c-0.9-0.5-1.8-0.8-2.6-1.4c-1.3-1-2.4-1.5-4-1.5c-0.7,0-1.4,0.1-2.2,0
		c-0.9-0.1-1.7,0.1-2.5,0.1c-0.9-0.1-1.7-0.4-2.6-0.1C30.2,8,29.7,8.5,29,8.8c-0.8,0.4-1.3,1.1-2.1,1.6c-0.7,0.5-1.5,0.9-2.1,1.5
		c-0.9,1-2.2,2.7-2.7,3.9c-0.4,0.9-0.3,2.3-0.4,3.3s-0.1,2-0.1,3.1c0.1,1.7,0.1,3,0.9,4.5c0.4,0.7,0.9,1.2,1.1,1.9
		c0.3,0.9,0.5,1.7,0.8,2.6c0.3,0.9,0.4,1.8,0.9,2.5c0.5,0.6,1,1.1,1.4,1.8c1.1,1.8,0.8,3.6,0.7,5.6c-0.1,1.6-0.7,2.8-2,3.9
		c-2.5,2-6.1,2.7-9.1,3.5c-1.6,0.4-4.1,0.8-5.3,2c-0.7,0.7-1,1.7-1.5,2.5s-1,1.5-1.4,2.4c-0.9,1.9-1.2,4.1-1.5,6.2
		c-0.3,2-0.4,4.1-0.6,6.1c-0.1,0.8-0.2,1.6-0.4,2.3h59C64.6,69.2,63.9,68.3,63.6,67.8z"/>
</g>
<g id="_x2D_-------_1_">
</g>
</svg>
