<?xml version="1.0" encoding="utf-8"?>
<!-- Generator: Adobe Illustrator 22.1.0, SVG Export Plug-In . SVG Version: 6.00 Build 0)  -->
<svg version="1.1" id="Calque_1" xmlns="http://www.w3.org/2000/svg" xmlns:xlink="http://www.w3.org/1999/xlink" x="0px" y="0px"
	 viewBox="0 0 32 32" style="enable-background:new 0 0 32 32;" xml:space="preserve">
<style type="text/css">
	.st0{fill:#FFFFFF;}
	.st1{fill:#E3234A;}
</style>
<symbol  id="Nouveau_symbole_193" viewBox="-12.7 -13 25.4 25.9">
	<polygon class="st0" points="-8.1,8.2 -1.5,5.7 2.7,13 3.9,4.3 12.7,5.1 5.3,-1.1 9.2,-8.9 1.4,-5 -3.8,-13 -4,-3.6 -12.7,-3 
		-5.4,1.8 	"/>
	<polygon class="st0" points="-10.6,4.3 -4,4.3 -3,11.1 1.4,5.7 7.8,8.2 5.3,1.8 10.7,-2.5 3.8,-3.6 2.8,-10.4 -1.5,-5 -7.9,-7.5 
		-5.4,-1.1 	"/>
</symbol>
<circle class="st1" cx="16" cy="16" r="16"/>
<use xlink:href="#Nouveau_symbole_193"  width="25.4" height="25.9" id="XMLID_73_" x="-12.7" y="-13" transform="matrix(0.7466 0 0 -0.7466 16.1997 16.0161)" style="overflow:visible;"/>
</svg>
