<?xml version="1.0" encoding="UTF-8"?>
<svg width="20" height="20" viewBox="0 0 20 20" version="1.1" xmlns="http://www.w3.org/2000/svg" xmlns:xlink="http://www.w3.org/1999/xlink">
  <title>Twitter</title>
  <path fill="#FFFFFF" d="M19.5 4.1c-.7.3-1.5.5-2.2.6.8-.5 1.4-1.2 1.7-2.2-.8.4-1.6.8-2.5.9-.7-.8-1.7-1.2-2.8-1.2-2.2 0-3.9 1.7-3.9 3.9 0 .3 0 .6.1.9-3.3-.1-6.2-1.7-8.1-4-.3.6-.5 1.2-.5 2 0 1.3.7 2.5 1.7 3.2-.6 0-1.2-.2-1.7-.5 0 1.9 1.3 3.5 3.1 3.8-.3.1-.7.1-1 .1-.3 0-.5 0-.7-.1.5 1.5 1.9 2.7 3.6 2.7-1.3 1-3 1.7-4.8 1.7-.3 0-.6 0-.9-.1 1.7 1.1 3.8 1.8 6 1.8 7.2 0 11.1-5.9 11.1-11.1v-.5c.6-.4 1.3-1.1 1.8-1.9"></path>
</svg>
